<svg xmlns="http://www.w3.org/2000/svg" viewBox="0 0 400 240" width="400" height="240">
  <defs>
    <linearGradient id="bg" x1="0%" y1="0%" x2="100%" y2="100%">
      <stop offset="0%" style="stop-color:#0a0f1a"/>
      <stop offset="100%" style="stop-color:#1a0a2e"/>
    </linearGradient>
    <linearGradient id="accent" x1="0%" y1="0%" x2="100%" y2="0%">
      <stop offset="0%" style="stop-color:#7B2FBE"/>
      <stop offset="100%" style="stop-color:#00D4FF"/>
    </linearGradient>
  </defs>
  <rect width="400" height="240" fill="url(#bg)"/>
  <g stroke="rgba(0,212,255,0.06)" stroke-width="1">
    <line x1="0" y1="60" x2="400" y2="60"/><line x1="0" y1="120" x2="400" y2="120"/>
    <line x1="0" y1="180" x2="400" y2="180"/>
    <line x1="80" y1="0" x2="80" y2="240"/><line x1="160" y1="0" x2="160" y2="240"/>
    <line x1="240" y1="0" x2="240" y2="240"/><line x1="320" y1="0" x2="320" y2="240"/>
  </g>
  <g transform="translate(200,95)" fill="none" stroke="url(#accent)" stroke-width="2" stroke-linecap="round">
    <!-- 3 people -->
    <circle cx="0" cy="-28" r="9"/>
    <path d="M-12,-16 Q-18,0 -12,10 L12,10 Q18,0 12,-16"/>
    <circle cx="-28" cy="-22" r="7"/>
    <path d="M-38,-12 Q-42,0 -36,8 L-20,8"/>
    <circle cx="28" cy="-22" r="7"/>
    <path d="M38,-12 Q42,0 36,8 L20,8"/>
    <!-- Star for fun -->
    <path d="M0,14 L2,20 L8,20 L3,24 L5,30 L0,26 L-5,30 L-3,24 L-8,20 L-2,20 Z" stroke-width="1"/>
  </g>
  <text x="200" y="165" text-anchor="middle" font-family="'Orbitron',Arial,sans-serif" font-size="12" font-weight="700" fill="url(#accent)">TEAM BUILDING ÉTÉ 2026</text>
  <text x="200" y="182" text-anchor="middle" font-family="Arial,sans-serif" font-size="10" fill="rgba(136,136,160,0.8)">Juillet 2026 · Places Limitées</text>
</svg>
