<svg xmlns="http://www.w3.org/2000/svg" viewBox="0 0 600 400" width="600" height="400">
  <defs>
    <linearGradient id="bg" x1="0%" y1="0%" x2="100%" y2="100%">
      <stop offset="0%" style="stop-color:#1a1000"/>
      <stop offset="100%" style="stop-color:#1a0a2e"/>
    </linearGradient>
    <linearGradient id="accent" x1="0%" y1="0%" x2="100%" y2="0%">
      <stop offset="0%" style="stop-color:#FF6B00"/>
      <stop offset="100%" style="stop-color:#7B2FBE"/>
    </linearGradient>
  </defs>
  <rect width="600" height="400" fill="url(#bg)"/>
  <g stroke="rgba(255,107,0,0.06)" stroke-width="1">
    <line x1="0" y1="80" x2="600" y2="80"/><line x1="0" y1="160" x2="600" y2="160"/>
    <line x1="0" y1="240" x2="600" y2="240"/><line x1="0" y1="320" x2="600" y2="320"/>
    <line x1="100" y1="0" x2="100" y2="400"/><line x1="200" y1="0" x2="200" y2="400"/>
    <line x1="300" y1="0" x2="300" y2="400"/><line x1="400" y1="0" x2="400" y2="400"/>
    <line x1="500" y1="0" x2="500" y2="400"/>
  </g>
  <!-- Gear/QHSE icon -->
  <g transform="translate(300,155)" fill="none" stroke="url(#accent)" stroke-width="2.5" stroke-linecap="round">
    <circle cx="0" cy="0" r="20"/>
    <circle cx="0" cy="0" r="9"/>
    <line x1="0" y1="-28" x2="0" y2="-22"/>
    <line x1="0" y1="22" x2="0" y2="28"/>
    <line x1="-28" y1="0" x2="-22" y2="0"/>
    <line x1="22" y1="0" x2="28" y2="0"/>
    <line x1="-19.8" y1="-19.8" x2="-15.6" y2="-15.6"/>
    <line x1="15.6" y1="15.6" x2="19.8" y2="19.8"/>
    <line x1="19.8" y1="-19.8" x2="15.6" y2="-15.6"/>
    <line x1="-15.6" y1="15.6" x2="-19.8" y2="19.8"/>
    <!-- Shield -->
    <path d="M-10,-12 L0,-16 L10,-12 L10,0 Q10,8 0,12 Q-10,8 -10,0 Z"/>
  </g>
  <text x="300" y="240" text-anchor="middle" font-family="'Orbitron',Arial,sans-serif" font-size="15" font-weight="700" fill="url(#accent)">FORMATION QHSE — CROWN</text>
  <text x="300" y="262" text-anchor="middle" font-family="Arial,sans-serif" font-size="11" fill="rgba(136,136,160,0.8)">Octobre 2025 · Usine Crown, Tunisie</text>
  <text x="300" y="285" text-anchor="middle" font-family="Arial,sans-serif" font-size="10" fill="rgba(0,212,255,0.5)">UNIVERS VR</text>
</svg>
